<?xml version="1.0" standalone="no"?>
<!DOCTYPE svg PUBLIC "-//W3C//DTD SVG 20010904//EN"
 "http://www.w3.org/TR/2001/REC-SVG-20010904/DTD/svg10.dtd">
<svg version="1.0" xmlns="http://www.w3.org/2000/svg"
 width="60.000000pt" height="60.000000pt" viewBox="0 0 60.000000 60.000000"
 preserveAspectRatio="xMidYMid meet">
<metadata>
Created by potrace 1.16, written by Peter Selinger 2001-2019
</metadata>
<g transform="translate(0.000000,60.000000) scale(0.100000,-0.100000)"
fill="#3b3c3d" stroke="none">
<path d="M117 392 c-42 -42 -77 -84 -77 -92 0 -9 36 -51 79 -94 69 -68 82 -78
95 -66 10 8 16 29 16 56 l0 44 162 2 163 3 9 28 c6 17 6 37 0 55 l-9 27 -163
3 -162 2 0 43 c0 38 -13 67 -30 67 -3 0 -40 -35 -83 -78z"/>
</g>
</svg>
