<?xml version="1.0" standalone="no"?>
<!DOCTYPE svg PUBLIC "-//W3C//DTD SVG 20010904//EN"
 "http://www.w3.org/TR/2001/REC-SVG-20010904/DTD/svg10.dtd">
<svg version="1.0" xmlns="http://www.w3.org/2000/svg"
 width="512.000000pt" height="512.000000pt" viewBox="0 0 512.000000 512.000000"
 preserveAspectRatio="xMidYMid meet">
<metadata>
Created by potrace 1.16, written by Peter Selinger 2001-2019
</metadata>
<g transform="translate(0.000000,512.000000) scale(0.100000,-0.100000)"
fill="#3b3c3d" stroke="none">
<path d="M2275 4544 c-353 -53 -694 -200 -960 -412 -359 -286 -607 -684 -710
-1137 -14 -60 -25 -122 -25 -137 l0 -28 703 0 702 0 53 80 c117 176 308 280
515 280 113 0 175 -14 272 -60 118 -57 218 -148 281 -255 l26 -45 704 0 c684
0 704 1 704 19 0 10 -7 54 -16 97 -170 844 -835 1474 -1685 1598 -132 20 -437
20 -564 0z"/>
<path d="M2450 2941 c-145 -47 -259 -177 -278 -320 -24 -176 56 -333 212 -414
58 -30 67 -32 171 -32 104 0 114 2 176 32 80 39 150 111 187 191 24 50 27 69
27 162 0 93 -3 112 -27 162 -37 80 -107 152 -187 191 -58 28 -76 32 -161 34
-52 1 -106 -1 -120 -6z m229 -194 c22 -15 53 -46 68 -69 24 -36 28 -51 28
-118 0 -67 -4 -82 -28 -118 -56 -85 -166 -124 -262 -92 -187 62 -197 333 -15
415 56 25 157 16 209 -18z"/>
<path d="M570 2333 c0 -39 26 -184 49 -273 36 -136 72 -233 137 -369 293 -611
857 -1021 1532 -1116 166 -24 499 -16 646 14 472 97 865 328 1164 686 241 287
409 672 448 1023 l7 62 -696 0 -695 0 -36 -73 c-111 -224 -326 -359 -571 -358
-243 1 -457 137 -563 359 l-34 72 -694 0 -694 0 0 -27z"/>
</g>
</svg>
