<?xml version="1.0" standalone="no"?>
<!DOCTYPE svg PUBLIC "-//W3C//DTD SVG 20010904//EN"
 "http://www.w3.org/TR/2001/REC-SVG-20010904/DTD/svg10.dtd">
<svg version="1.0" xmlns="http://www.w3.org/2000/svg"
 width="128.000000pt" height="128.000000pt" viewBox="0 0 128.000000 128.000000"
 preserveAspectRatio="xMidYMid meet">
<metadata>
Created by potrace 1.16, written by Peter Selinger 2001-2019
</metadata>
<g transform="translate(0.000000,128.000000) scale(0.100000,-0.100000)"
fill="#3b3c3d" stroke="none">
<path d="M500 1140 c-13 -13 -20 -33 -20 -58 l0 -38 -140 -19 -140 -19 0 -33
0 -33 440 0 440 0 0 34 0 34 -140 18 -140 18 0 38 c0 68 -21 78 -160 78 -107
0 -122 -2 -140 -20z"/>
<path d="M240 865 c0 -20 11 -175 25 -343 21 -256 28 -311 44 -332 l18 -25
313 0 313 0 18 25 c16 21 23 77 46 357 14 183 25 335 22 337 -2 2 -183 7 -401
11 l-398 7 0 -37z m190 -134 c6 -12 10 -109 10 -245 l0 -226 -29 0 -29 0 -7
234 c-4 129 -4 239 -1 245 11 18 44 13 56 -8z m257 -11 c9 -18 13 -88 13 -242
l0 -218 -61 0 -60 0 3 228 c3 253 6 265 62 260 21 -2 35 -11 43 -28z m219 19
c3 -6 3 -116 -1 -245 l-7 -234 -29 0 -29 0 0 226 c0 136 4 233 10 245 12 21
45 26 56 8z"/>
</g>
</svg>
